<svg xmlns="http://www.w3.org/2000/svg" xmlns:xlink="http://www.w3.org/1999/xlink" width="500" zoomAndPan="magnify" viewBox="0 0 375 374.999991" height="500" preserveAspectRatio="xMidYMid meet" version="1.0"><defs><g/></defs><rect x="-37.5" width="450" fill="#ffffff" y="-37.499999" height="449.999989" fill-opacity="1"/><rect x="-37.5" width="450" fill="#07363c" y="-37.499999" height="449.999989" fill-opacity="1"/><g fill="#e4c19d" fill-opacity="1"><g transform="translate(102.12226, 243.120796)"><g><path d="M 134.3125 -74.46875 L 138.140625 -73.609375 L 124.953125 -31.90625 L 5.8125 -31.90625 L 5.8125 -36.171875 L 11.625 -36.171875 C 18.15625 -36.171875 22.789062 -38.25 25.53125 -42.40625 C 27.132812 -44.863281 27.9375 -50.488281 27.9375 -59.28125 L 27.9375 -158.5625 C 27.9375 -168.113281 26.898438 -174.117188 24.828125 -176.578125 C 21.796875 -179.890625 17.394531 -181.546875 11.625 -181.546875 L 5.8125 -181.546875 L 5.8125 -185.796875 L 75.453125 -185.796875 L 75.453125 -181.546875 C 67.316406 -181.640625 61.59375 -180.878906 58.28125 -179.265625 C 54.976562 -177.660156 52.734375 -175.648438 51.546875 -173.234375 C 50.367188 -170.828125 49.78125 -165.039062 49.78125 -155.875 L 49.78125 -59.28125 C 49.78125 -52.945312 50.347656 -48.644531 51.484375 -46.375 C 52.429688 -44.769531 53.847656 -43.585938 55.734375 -42.828125 C 57.628906 -42.078125 63.539062 -41.703125 73.46875 -41.703125 L 84.671875 -41.703125 C 96.492188 -41.703125 104.789062 -42.578125 109.5625 -44.328125 C 114.332031 -46.078125 118.679688 -49.148438 122.609375 -53.546875 C 126.535156 -57.941406 130.4375 -64.914062 134.3125 -74.46875 Z M 134.3125 -74.46875 "/></g></g></g><path stroke-linecap="butt" transform="matrix(4.653901, 0, 0, 4.653901, 149.356665, 46.216132)" fill="none" stroke-linejoin="miter" d="M 25.902071 14.312312 L 25.902071 25.770274 L 24.977947 25.770274 C 24.700123 23.582929 24.178887 21.837921 23.415078 20.53609 C 22.65127 19.234258 21.571027 18.196822 20.17351 17.424621 C 18.784387 16.65158 17.339027 16.265479 15.83743 16.265479 C 14.153695 16.265479 12.756178 16.785876 11.644879 17.827508 C 10.542813 18.860748 9.99136 20.036677 9.99136 21.356134 C 9.99136 22.354121 10.347245 23.269851 11.059013 24.103325 C 12.048606 25.318703 14.444949 26.942006 18.246364 28.973232 C 21.336849 30.639341 23.446134 31.915152 24.57422 32.800666 C 25.702306 33.68618 26.570193 34.727812 27.177883 35.925564 C 27.785572 37.123316 28.089416 38.38234 28.089416 39.701798 C 28.089416 42.201381 27.117449 44.362706 25.172676 46.185774 C 23.237136 47.999608 20.737553 48.906945 17.673927 48.906945 C 16.718747 48.906945 15.81141 48.837279 14.951916 48.697947 C 14.465933 48.611494 13.429336 48.311846 11.840448 47.799843 C 10.260792 47.279446 9.258608 47.018408 8.833058 47.018408 C 8.425134 47.018408 8.103663 47.140114 7.869485 47.383525 C 7.635306 47.626097 7.457364 48.133904 7.335658 48.906945 L 6.424125 48.906945 L 6.424125 37.566493 L 7.335658 37.566493 C 7.761209 39.94437 8.329448 41.723791 9.041217 42.904756 C 9.752985 44.084882 10.846658 45.061045 12.322234 45.834086 C 13.797811 46.597894 15.407683 46.979798 17.152691 46.979798 C 19.183917 46.979798 20.785396 46.450169 21.957128 45.39091 C 23.137254 44.323257 23.728156 43.056678 23.728156 41.589495 C 23.728156 40.782041 23.502371 39.961996 23.050801 39.128522 C 22.608463 38.295048 21.922715 37.522846 20.993555 36.811078 C 20.359846 36.325095 18.624071 35.287659 15.785391 33.699609 C 12.955943 32.11072 10.94654 30.847499 9.757182 29.910785 C 8.567824 28.963999 7.665523 27.922366 7.04944 26.785887 C 6.432518 25.648568 6.124477 24.398776 6.124477 23.035673 C 6.124477 20.657795 7.031814 18.608943 8.845648 16.890794 C 10.668716 15.171806 12.990357 14.312312 15.81141 14.312312 C 17.556418 14.312312 19.413899 14.750453 21.383852 15.627573 C 22.304619 16.035497 22.946721 16.239459 23.310999 16.239459 C 23.736549 16.239459 24.079004 16.113557 24.340042 15.861752 C 24.608634 15.601553 24.821828 15.085353 24.977947 14.312312 Z M 25.902071 14.312312 " stroke="#07363c" stroke-width="2.599998" stroke-opacity="1" stroke-miterlimit="4"/><g fill="#e4c19d" fill-opacity="1"><g transform="translate(159.682508, 302.180695)"><g><path d="M 110.1875 -189.328125 L 110.1875 -136 L 105.9375 -136 C 104.613281 -146.21875 102.175781 -154.347656 98.625 -160.390625 C 95.082031 -166.441406 90.070312 -171.265625 83.59375 -174.859375 C 77.125 -178.453125 70.390625 -180.25 63.390625 -180.25 C 55.546875 -180.25 49.046875 -177.835938 43.890625 -173.015625 C 38.742188 -168.203125 36.171875 -162.722656 36.171875 -156.578125 C 36.171875 -151.941406 37.820312 -147.6875 41.125 -143.8125 C 45.757812 -138.132812 56.914062 -130.566406 74.59375 -121.109375 C 88.96875 -113.359375 98.773438 -107.425781 104.015625 -103.3125 C 109.265625 -99.195312 113.304688 -94.347656 116.140625 -88.765625 C 118.984375 -83.191406 120.40625 -77.332031 120.40625 -71.1875 C 120.40625 -59.5625 115.890625 -49.515625 106.859375 -41.046875 C 97.828125 -32.585938 86.175781 -28.359375 71.90625 -28.359375 C 67.457031 -28.359375 63.25 -28.691406 59.28125 -29.359375 C 57.007812 -29.734375 52.1875 -31.125 44.8125 -33.53125 C 37.4375 -35.945312 32.757812 -37.15625 30.78125 -37.15625 C 28.882812 -37.15625 27.390625 -36.585938 26.296875 -35.453125 C 25.210938 -34.316406 24.390625 -31.953125 23.828125 -28.359375 L 19.578125 -28.359375 L 19.578125 -81.125 L 23.828125 -81.125 C 25.804688 -70.0625 28.453125 -61.785156 31.765625 -56.296875 C 35.078125 -50.816406 40.160156 -46.28125 47.015625 -42.6875 C 53.867188 -39.09375 61.363281 -37.296875 69.5 -37.296875 C 78.945312 -37.296875 86.410156 -39.773438 91.890625 -44.734375 C 97.378906 -49.703125 100.125 -55.59375 100.125 -62.40625 C 100.125 -66.1875 99.082031 -70.015625 97 -73.890625 C 94.925781 -77.765625 91.710938 -81.359375 87.359375 -84.671875 C 84.429688 -86.941406 76.367188 -91.757812 63.171875 -99.125 C 49.984375 -106.5 40.625 -112.382812 35.09375 -116.78125 C 29.5625 -121.1875 25.351562 -126.035156 22.46875 -131.328125 C 19.59375 -136.617188 18.15625 -142.429688 18.15625 -148.765625 C 18.15625 -159.828125 22.382812 -169.351562 30.84375 -177.34375 C 39.3125 -185.332031 50.113281 -189.328125 63.25 -189.328125 C 71.382812 -189.328125 80.035156 -187.296875 89.203125 -183.234375 C 93.460938 -181.335938 96.441406 -180.390625 98.140625 -180.390625 C 100.128906 -180.390625 101.738281 -180.976562 102.96875 -182.15625 C 104.195312 -183.34375 105.1875 -185.734375 105.9375 -189.328125 Z M 110.1875 -189.328125 "/></g></g></g></svg>